<?xml version="1.0" standalone="no"?>
<!DOCTYPE svg PUBLIC "-//W3C//DTD SVG 20010904//EN"
 "http://www.w3.org/TR/2001/REC-SVG-20010904/DTD/svg10.dtd">
<svg version="1.0" xmlns="http://www.w3.org/2000/svg"
 width="16.000000pt" height="16.000000pt" viewBox="0 0 16.000000 16.000000"
 preserveAspectRatio="xMidYMid meet">
<metadata>
Created by potrace 1.11, written by Peter Selinger 2001-2013
</metadata>
<g transform="translate(0.000000,16.000000) scale(0.002667,-0.002667)"
fill="#000000" stroke="none">
<path d="M3440 4050 c-19 -5 -107 -21 -196 -36 l-160 -26 -60 -162 -59 -161
-63 -3 c-34 -2 -62 -4 -62 -6 0 -4 -50 -208 -56 -228 -4 -12 0 -16 13 -14 10
2 72 7 138 10 66 4 145 9 175 11 130 10 338 23 397 24 47 1 42 -9 82 154 l19
78 -93 -2 c-52 -2 -97 -1 -100 2 -2 3 22 86 55 184 33 99 60 181 60 182 0 6
-55 1 -90 -7z"/>
<path d="M4270 4049 c-19 -5 -57 -11 -85 -14 -27 -4 -52 -8 -55 -10 -3 -2 -24
-6 -46 -9 -22 -4 -49 -8 -61 -10 -12 -3 -41 -8 -66 -11 l-45 -7 -59 -161 -58
-162 -64 -5 -64 -5 -28 -115 c-31 -127 -32 -133 -21 -127 4 3 66 8 137 12 72
3 157 8 190 10 164 11 209 14 315 20 63 4 116 9 118 10 2 2 16 53 32 115 l28
112 -94 -3 c-51 -2 -96 -1 -99 2 -3 3 22 86 55 185 33 98 60 180 60 181 0 5
-51 0 -90 -8z"/>
<path d="M830 3669 c-91 -15 -180 -31 -198 -34 -30 -5 -36 -14 -68 -82 -53
-118 -104 -260 -121 -338 -18 -84 -24 -265 -12 -354 9 -63 11 -76 25 -140 l7
-33 51 6 c28 3 62 8 75 11 14 2 45 7 70 10 25 3 53 7 61 9 8 1 36 6 61 10 l46
8 1 156 c0 87 3 166 5 177 3 11 6 25 6 31 1 11 97 111 157 164 66 59 187 140
209 140 13 0 2 -34 -50 -153 -30 -70 -63 -154 -74 -187 -54 -164 -27 -271 85
-336 144 -84 318 -54 523 89 l64 45 56 -48 c112 -97 227 -132 411 -125 111 3
133 7 219 31 78 22 151 62 266 143 55 39 102 67 106 63 3 -4 13 -27 22 -52 38
-102 164 -182 293 -187 123 -4 224 33 392 145 64 42 119 78 122 79 3 2 13 -17
23 -42 11 -26 40 -64 71 -92 163 -149 389 -116 684 99 28 21 52 34 52 29 0 -5
24 -36 54 -69 101 -109 235 -154 431 -147 61 2 121 6 134 9 62 14 140 39 181
58 61 27 290 186 291 201 3 37 1 118 -3 122 -3 3 -20 -5 -39 -18 -189 -127
-288 -167 -409 -163 -62 1 -85 7 -129 31 -49 27 -131 112 -131 136 0 5 12 11
28 15 201 46 405 139 489 225 92 93 90 194 -8 289 -149 144 -482 105 -710 -83
-131 -109 -205 -246 -218 -406 l-6 -76 -50 -27 c-117 -64 -221 -87 -273 -59
-51 27 -60 123 -23 249 12 38 21 75 21 81 0 9 -22 11 -82 7 -46 -3 -132 -8
-193 -11 -140 -7 -165 -12 -166 -33 0 -9 -2 -26 -5 -37 -7 -38 -15 -90 -17
-119 -2 -26 -13 -35 -92 -77 -115 -61 -188 -81 -245 -67 -78 20 -92 86 -54
240 13 51 24 97 24 101 0 5 -39 6 -87 3 -49 -3 -142 -8 -208 -12 -66 -4 -125
-10 -131 -15 -12 -10 -34 -106 -34 -149 0 -23 -14 -35 -97 -88 -110 -68 -164
-93 -242 -112 -64 -15 -167 -8 -212 15 -42 22 -117 92 -135 126 -13 27 -13 28
19 35 41 10 35 8 87 23 109 30 247 90 332 145 82 52 138 132 138 197 0 76 -68
162 -162 205 -57 25 -74 28 -173 29 -95 0 -122 -4 -198 -29 -285 -93 -478
-332 -473 -584 2 -90 4 -88 -86 -122 -62 -24 -114 -26 -121 -6 -3 8 24 90 60
183 105 268 123 369 81 453 -33 64 -88 92 -187 96 -134 6 -283 -62 -466 -212
-30 -24 -55 -40 -55 -36 0 5 20 60 45 123 51 128 54 141 40 144 -5 2 -84 -10
-175 -26z m1506 -137 c20 -3 35 -56 28 -97 -13 -89 -71 -141 -208 -185 -32
-11 -64 -20 -69 -20 -18 0 2 104 32 165 53 106 122 150 217 137z m2743 -9 c50
-41 18 -162 -54 -212 -38 -26 -138 -68 -184 -77 -29 -6 -29 -5 -25 27 20 136
72 220 159 260 50 23 77 24 104 2z"/>
<path d="M679 2258 c-4 -63 -3 -81 3 -84 4 -3 4 -15 -1 -27 -8 -25 -7 -84 2
-93 3 -3 1 -17 -4 -31 -5 -14 -6 -30 -2 -36 4 -7 6 -20 5 -29 -2 -12 3 -16 17
-15 17 1 20 8 20 47 -2 107 -6 100 60 100 50 0 59 3 57 17 -3 18 -33 27 -42
12 -4 -6 -10 -6 -18 0 -6 5 -21 9 -31 7 -11 -2 -22 3 -26 12 -7 20 4 93 15 92
5 -1 13 4 17 12 5 7 9 8 9 3 0 -6 19 -10 42 -10 32 0 44 5 46 18 3 15 -6 17
-82 17 -62 0 -86 -4 -87 -12z"/>
<path d="M1165 2253 c2 -7 1 -13 -3 -13 -6 0 -7 -55 -2 -70 1 -3 1 -9 0 -15
-1 -5 -2 -55 -3 -110 -1 -97 0 -100 22 -103 21 -3 22 0 21 50 -3 82 -2 86 23
90 48 8 87 -30 87 -85 1 -29 23 -57 45 -57 12 0 15 5 10 18 -4 9 -11 31 -15
47 -11 43 -32 85 -42 85 -5 0 5 14 22 32 27 27 31 37 27 66 -7 40 -22 61 -56
73 -17 7 -27 6 -33 -3 -6 -10 -8 -10 -8 0 0 9 -15 12 -50 10 -35 -2 -49 -7
-45 -15z m139 -38 c11 -8 16 -21 13 -30 -4 -8 -2 -15 4 -15 6 0 3 -7 -5 -16
-9 -8 -16 -21 -16 -27 0 -7 -20 -13 -50 -15 -55 -3 -54 -4 -50 78 3 59 45 70
104 25z"/>
<path d="M1746 2253 c-23 -65 -25 -77 -14 -90 8 -11 7 -12 -6 -7 -15 6 -17 3
-20 -38 -1 -7 -4 -16 -9 -19 -4 -3 -9 -14 -12 -25 -2 -10 -12 -45 -23 -77
l-20 -58 21 3 c15 2 26 16 37 48 l16 45 59 0 59 0 17 -44 c11 -32 22 -45 38
-48 15 -2 21 1 18 9 -3 7 -13 39 -23 71 -9 31 -21 57 -26 57 -5 0 -7 4 -4 8 3
5 -7 47 -23 93 -25 73 -32 84 -53 87 -17 2 -27 -3 -32 -15z m41 -45 c2 -24 6
-44 16 -68 29 -69 29 -66 -24 -69 -55 -2 -59 4 -34 64 9 20 13 46 9 57 -4 14
-2 18 5 14 6 -4 11 0 11 8 0 25 16 19 17 -6z"/>
<path d="M2213 2258 c2 -7 0 -23 -4 -35 -5 -13 -4 -25 2 -29 6 -3 6 -10 1 -17
-5 -7 -9 -28 -10 -47 0 -19 -3 -69 -7 -110 -6 -71 -6 -76 13 -77 22 -2 21 -16
25 189 1 49 4 88 7 88 3 -1 25 -63 50 -139 27 -84 50 -138 57 -137 16 3 26 13
29 29 1 7 14 43 28 81 14 38 23 73 20 78 -3 4 -1 8 5 8 6 0 13 16 17 35 3 19
10 35 14 35 6 0 10 -48 13 -172 0 -16 5 -28 11 -28 7 0 8 -3 1 -8 -14 -10 -17
-32 -5 -32 5 0 7 -6 4 -14 -4 -10 1 -14 14 -13 19 1 20 6 16 62 -3 33 -7 89
-10 125 -2 36 -5 70 -5 75 -1 6 0 15 1 20 7 29 -1 45 -24 45 -14 0 -27 -4 -31
-9 -5 -9 -64 -167 -69 -186 -1 -5 -6 -26 -11 -45 -8 -35 -8 -35 -37 50 -16 47
-31 93 -33 104 -2 10 -9 24 -16 32 -6 8 -8 14 -4 14 4 0 2 6 -4 13 -6 8 -8 17
-4 20 3 4 -8 7 -26 7 -22 0 -31 -4 -28 -12z"/>
<path d="M2828 2263 c6 -2 10 -8 7 -13 -5 -8 -7 -114 -6 -247 l1 -63 90 2 c68
1 90 4 90 14 0 16 -3 16 -82 16 l-58 0 0 62 0 62 57 0 c48 -1 58 2 61 17 3 13
-2 18 -15 17 -10 -1 -37 -2 -60 -1 l-43 1 0 56 c0 50 2 56 19 51 10 -2 25 0
34 4 10 6 18 5 22 -1 5 -8 11 -7 21 1 10 8 14 8 14 1 0 -6 6 -9 13 -6 8 3 14
11 14 19 0 12 -19 15 -96 14 -53 0 -90 -3 -83 -6z"/>
<path d="M3297 2203 c9 -38 18 -70 22 -73 3 -3 7 -18 9 -35 1 -16 5 -37 9 -45
3 -8 7 -26 9 -39 2 -13 9 -28 16 -32 10 -6 10 -9 1 -9 -7 0 -10 -7 -7 -15 7
-18 54 -16 54 2 0 22 1 28 10 38 4 6 7 22 6 37 -1 15 1 25 4 22 5 -6 29 75 36
126 3 19 10 40 16 45 7 7 9 6 4 -2 -9 -16 23 -156 38 -165 7 -5 7 -8 -3 -8
-11 0 -11 -3 0 -17 8 -9 12 -18 10 -20 -2 -2 0 -19 3 -38 6 -28 12 -35 30 -35
18 0 25 7 29 28 5 30 45 178 54 202 4 8 8 26 10 39 2 14 9 33 14 43 8 15 6 18
-16 18 -14 0 -24 -3 -23 -7 1 -5 -4 -27 -10 -50 -7 -23 -12 -45 -11 -50 1 -4
-1 -16 -6 -26 -4 -10 -15 -48 -25 -85 l-17 -67 -10 55 c-10 49 -20 96 -27 125
-12 47 -19 73 -23 88 -3 10 -14 17 -30 17 -23 0 -24 -2 -12 -17 8 -9 9 -14 3
-10 -11 7 -20 -14 -30 -73 -3 -14 -12 -47 -20 -73 -9 -26 -13 -55 -10 -63 4
-10 2 -13 -6 -8 -8 5 -9 2 -5 -9 3 -9 2 -19 -3 -22 -6 -4 -10 -3 -11 2 -6 65
-12 99 -17 103 -7 5 -8 9 -10 56 -1 14 -5 23 -9 21 -5 -3 -9 7 -9 21 -3 61 -8
72 -30 72 -22 0 -22 0 -7 -67z"/>
<path d="M4042 2259 c-56 -21 -96 -93 -93 -166 3 -85 51 -140 132 -150 36 -4
50 -3 46 4 -4 7 0 9 11 6 44 -11 104 76 105 153 1 57 -31 128 -50 113 -11 -9
-12 -8 -7 5 12 32 -87 56 -144 35z m73 -19 c-3 -5 2 -10 12 -10 22 0 67 -55
70 -84 6 -60 4 -84 -10 -110 -9 -16 -13 -34 -10 -39 4 -6 1 -7 -7 -2 -7 4 -15
3 -19 -3 -3 -6 -19 -13 -34 -16 -14 -2 -32 -8 -38 -12 -7 -4 -9 -3 -6 3 6 10
-37 29 -56 24 -5 -1 -6 3 -2 8 3 6 -2 22 -11 36 -13 20 -15 40 -11 84 6 67 29
99 87 117 19 7 36 12 38 13 2 1 0 -3 -3 -9z"/>
<path d="M4543 2237 c2 -15 0 -30 -5 -33 -5 -3 -5 -10 -1 -16 3 -7 6 -26 6
-43 0 -17 -3 -36 -6 -43 -4 -6 -3 -13 3 -17 6 -3 7 -12 3 -20 -5 -7 -6 -39 -5
-69 3 -47 7 -56 23 -56 22 0 26 38 7 59 -11 11 -10 12 0 6 11 -5 13 3 10 38
l-4 44 35 -4 c48 -6 69 -29 84 -89 9 -39 17 -50 35 -52 20 -3 21 -1 12 23 -5
14 -10 37 -10 50 0 13 -11 36 -24 50 l-24 26 30 29 c25 25 29 36 25 65 -6 41
-55 95 -67 75 -6 -9 -9 -9 -15 -1 -4 7 -28 11 -62 9 -54 -3 -54 -4 -50 -31z
m150 -10 c6 3 7 1 3 -6 -4 -6 0 -25 8 -42 14 -29 14 -30 -1 -18 -15 12 -16 11
-11 -9 4 -12 2 -20 -3 -16 -5 3 -9 0 -9 -5 0 -6 -7 -11 -16 -11 -8 0 -13 -4
-10 -8 3 -5 -13 -6 -36 -3 l-40 6 -2 63 c-1 45 2 61 11 58 7 -3 15 -1 18 4 4
6 20 4 42 -5 19 -8 40 -12 46 -8z"/>
<path d="M5039 2255 c-3 -51 -2 -72 5 -83 4 -7 2 -12 -4 -12 -8 0 -8 -6 0 -20
8 -15 8 -20 -1 -20 -9 0 -9 -3 0 -14 8 -10 9 -16 1 -21 -7 -4 -7 -12 0 -25 7
-13 7 -21 0 -25 -7 -5 -8 -11 -1 -19 6 -7 6 -17 1 -26 -10 -17 5 -50 24 -50 9
0 14 18 15 61 1 54 16 99 32 99 7 0 59 -79 59 -89 0 -5 9 -16 20 -26 11 -10
20 -24 20 -32 0 -7 11 -13 24 -13 31 0 26 23 -15 71 -16 19 -36 49 -44 67 -9
17 -20 32 -25 32 -15 0 -4 29 23 60 16 17 25 36 21 43 -4 7 -4 9 1 5 11 -10
37 11 29 23 -3 5 0 8 7 7 6 -2 14 3 16 10 3 7 -4 12 -19 12 -23 0 -86 -72 -80
-92 1 -5 -2 -7 -7 -3 -13 7 -45 -41 -36 -54 3 -7 0 -8 -9 -5 -13 5 -16 22 -16
80 0 67 -2 74 -20 74 -11 0 -20 -7 -21 -15z"/>
</g>
</svg>
